<mxfile host="Electron" modified="2024-06-12T19:15:27.224Z" agent="Mozilla/5.0 (Windows NT 10.0; Win64; x64) AppleWebKit/537.36 (KHTML, like Gecko) draw.io/24.5.1 Chrome/124.0.6367.207 Electron/30.0.6 Safari/537.36" etag="oGeMhwgBEW7u1Ev5UzEf" version="24.5.1" type="device">
  <diagram name="Page-1" id="z3cnARztxCHattwO2e-m">
    <mxGraphModel dx="2924" dy="2304" grid="1" gridSize="10" guides="1" tooltips="1" connect="1" arrows="1" fold="1" page="1" pageScale="1" pageWidth="850" pageHeight="1100" math="0" shadow="0">
      <root>
        <mxCell id="0" />
        <mxCell id="1" parent="0" />
        <mxCell id="AOK6RlnhA2tjS8RgAGG8-2" value="&lt;font style=&quot;font-size: 24px;&quot;&gt;&lt;b&gt;Employee&lt;/b&gt;&lt;/font&gt;" style="rounded=0;whiteSpace=wrap;html=1;" parent="1" vertex="1">
          <mxGeometry x="-440" y="110" width="150" height="70" as="geometry" />
        </mxCell>
        <mxCell id="AOK6RlnhA2tjS8RgAGG8-3" value="&lt;font style=&quot;font-size: 18px;&quot;&gt;&lt;u&gt;&lt;b&gt;Emp_id&lt;/b&gt;&lt;/u&gt;&lt;/font&gt;" style="ellipse;whiteSpace=wrap;html=1;" parent="1" vertex="1">
          <mxGeometry x="-480" y="-30" width="120" height="80" as="geometry" />
        </mxCell>
        <mxCell id="AOK6RlnhA2tjS8RgAGG8-4" style="edgeStyle=orthogonalEdgeStyle;rounded=0;orthogonalLoop=1;jettySize=auto;html=1;exitX=0.5;exitY=1;exitDx=0;exitDy=0;" parent="1" source="AOK6RlnhA2tjS8RgAGG8-2" target="AOK6RlnhA2tjS8RgAGG8-2" edge="1">
          <mxGeometry relative="1" as="geometry" />
        </mxCell>
        <mxCell id="AOK6RlnhA2tjS8RgAGG8-5" value="&lt;font style=&quot;font-size: 18px;&quot;&gt;Name&lt;/font&gt;" style="ellipse;whiteSpace=wrap;html=1;" parent="1" vertex="1">
          <mxGeometry x="-330" y="-40" width="120" height="80" as="geometry" />
        </mxCell>
        <mxCell id="AOK6RlnhA2tjS8RgAGG8-6" value="&lt;font style=&quot;font-size: 18px;&quot;&gt;Lname&lt;/font&gt;" style="ellipse;whiteSpace=wrap;html=1;" parent="1" vertex="1">
          <mxGeometry x="-280" y="-130" width="120" height="80" as="geometry" />
        </mxCell>
        <mxCell id="AOK6RlnhA2tjS8RgAGG8-7" value="&lt;font style=&quot;font-size: 18px;&quot;&gt;Fname&lt;/font&gt;" style="ellipse;whiteSpace=wrap;html=1;" parent="1" vertex="1">
          <mxGeometry x="-430" y="-120" width="120" height="80" as="geometry" />
        </mxCell>
        <mxCell id="AOK6RlnhA2tjS8RgAGG8-8" value="&lt;font style=&quot;font-size: 18px;&quot;&gt;Email&lt;/font&gt;" style="ellipse;whiteSpace=wrap;html=1;" parent="1" vertex="1">
          <mxGeometry x="-220" y="30" width="120" height="80" as="geometry" />
        </mxCell>
        <mxCell id="AOK6RlnhA2tjS8RgAGG8-9" value="&lt;font style=&quot;font-size: 18px;&quot;&gt;Salary&lt;/font&gt;" style="ellipse;whiteSpace=wrap;html=1;" parent="1" vertex="1">
          <mxGeometry x="-600" y="60" width="120" height="80" as="geometry" />
        </mxCell>
        <mxCell id="AOK6RlnhA2tjS8RgAGG8-10" value="&lt;font style=&quot;font-size: 18px;&quot;&gt;DateOfBirth&lt;/font&gt;" style="ellipse;whiteSpace=wrap;html=1;" parent="1" vertex="1">
          <mxGeometry x="-600" y="170" width="120" height="80" as="geometry" />
        </mxCell>
        <mxCell id="AOK6RlnhA2tjS8RgAGG8-13" value="" style="endArrow=none;html=1;rounded=0;exitX=0.25;exitY=0;exitDx=0;exitDy=0;" parent="1" source="AOK6RlnhA2tjS8RgAGG8-2" target="AOK6RlnhA2tjS8RgAGG8-3" edge="1">
          <mxGeometry width="50" height="50" relative="1" as="geometry">
            <mxPoint x="-390" y="100" as="sourcePoint" />
            <mxPoint x="-340" y="50" as="targetPoint" />
          </mxGeometry>
        </mxCell>
        <mxCell id="AOK6RlnhA2tjS8RgAGG8-16" value="" style="endArrow=none;html=1;rounded=0;entryX=0.5;entryY=1;entryDx=0;entryDy=0;exitX=0;exitY=0.5;exitDx=0;exitDy=0;" parent="1" source="AOK6RlnhA2tjS8RgAGG8-47" target="AOK6RlnhA2tjS8RgAGG8-2" edge="1">
          <mxGeometry width="50" height="50" relative="1" as="geometry">
            <mxPoint x="-370" y="260" as="sourcePoint" />
            <mxPoint x="-320" y="210" as="targetPoint" />
          </mxGeometry>
        </mxCell>
        <mxCell id="AOK6RlnhA2tjS8RgAGG8-17" value="" style="endArrow=none;html=1;rounded=0;entryX=0.358;entryY=1;entryDx=0;entryDy=0;entryPerimeter=0;exitX=0.5;exitY=0;exitDx=0;exitDy=0;" parent="1" source="AOK6RlnhA2tjS8RgAGG8-2" target="AOK6RlnhA2tjS8RgAGG8-5" edge="1">
          <mxGeometry width="50" height="50" relative="1" as="geometry">
            <mxPoint x="-350" y="100" as="sourcePoint" />
            <mxPoint x="-300" y="50" as="targetPoint" />
          </mxGeometry>
        </mxCell>
        <mxCell id="AOK6RlnhA2tjS8RgAGG8-18" value="" style="endArrow=none;html=1;rounded=0;exitX=0.783;exitY=0.1;exitDx=0;exitDy=0;exitPerimeter=0;" parent="1" source="AOK6RlnhA2tjS8RgAGG8-5" target="AOK6RlnhA2tjS8RgAGG8-6" edge="1">
          <mxGeometry width="50" height="50" relative="1" as="geometry">
            <mxPoint x="-60" y="-10" as="sourcePoint" />
            <mxPoint x="-10" y="-60" as="targetPoint" />
          </mxGeometry>
        </mxCell>
        <mxCell id="AOK6RlnhA2tjS8RgAGG8-19" value="" style="endArrow=none;html=1;rounded=0;entryX=1;entryY=1;entryDx=0;entryDy=0;" parent="1" source="AOK6RlnhA2tjS8RgAGG8-5" target="AOK6RlnhA2tjS8RgAGG8-7" edge="1">
          <mxGeometry width="50" height="50" relative="1" as="geometry">
            <mxPoint x="-360" as="sourcePoint" />
            <mxPoint x="-310" y="-50" as="targetPoint" />
          </mxGeometry>
        </mxCell>
        <mxCell id="AOK6RlnhA2tjS8RgAGG8-20" value="" style="endArrow=none;html=1;rounded=0;exitX=0.983;exitY=0.65;exitDx=0;exitDy=0;exitPerimeter=0;" parent="1" source="AOK6RlnhA2tjS8RgAGG8-9" target="AOK6RlnhA2tjS8RgAGG8-2" edge="1">
          <mxGeometry width="50" height="50" relative="1" as="geometry">
            <mxPoint x="-480" y="160" as="sourcePoint" />
            <mxPoint x="-430" y="110" as="targetPoint" />
          </mxGeometry>
        </mxCell>
        <mxCell id="AOK6RlnhA2tjS8RgAGG8-21" value="" style="endArrow=none;html=1;rounded=0;entryX=0;entryY=0.75;entryDx=0;entryDy=0;" parent="1" source="AOK6RlnhA2tjS8RgAGG8-10" target="AOK6RlnhA2tjS8RgAGG8-2" edge="1">
          <mxGeometry width="50" height="50" relative="1" as="geometry">
            <mxPoint x="-500" y="190" as="sourcePoint" />
            <mxPoint x="-450" y="140" as="targetPoint" />
          </mxGeometry>
        </mxCell>
        <mxCell id="AOK6RlnhA2tjS8RgAGG8-22" value="&lt;font style=&quot;font-size: 18px;&quot;&gt;Bonus&lt;/font&gt;" style="ellipse;whiteSpace=wrap;html=1;" parent="1" vertex="1">
          <mxGeometry x="-610" y="-40" width="120" height="80" as="geometry" />
        </mxCell>
        <mxCell id="AOK6RlnhA2tjS8RgAGG8-24" value="&lt;font style=&quot;font-size: 18px;&quot;&gt;Address&lt;/font&gt;" style="ellipse;whiteSpace=wrap;html=1;" parent="1" vertex="1">
          <mxGeometry x="-590" y="260" width="120" height="80" as="geometry" />
        </mxCell>
        <mxCell id="AOK6RlnhA2tjS8RgAGG8-27" value="&lt;font style=&quot;font-size: 18px;&quot;&gt;Phone Number&lt;/font&gt;" style="ellipse;whiteSpace=wrap;html=1;" parent="1" vertex="1">
          <mxGeometry x="-510" y="350" width="120" height="80" as="geometry" />
        </mxCell>
        <mxCell id="AOK6RlnhA2tjS8RgAGG8-29" value="" style="endArrow=none;html=1;rounded=0;" parent="1" source="AOK6RlnhA2tjS8RgAGG8-2" target="AOK6RlnhA2tjS8RgAGG8-8" edge="1">
          <mxGeometry width="50" height="50" relative="1" as="geometry">
            <mxPoint x="-270" y="160" as="sourcePoint" />
            <mxPoint x="-220" y="110" as="targetPoint" />
          </mxGeometry>
        </mxCell>
        <mxCell id="AOK6RlnhA2tjS8RgAGG8-31" value="" style="endArrow=none;html=1;rounded=0;" parent="1" source="AOK6RlnhA2tjS8RgAGG8-22" target="AOK6RlnhA2tjS8RgAGG8-2" edge="1">
          <mxGeometry width="50" height="50" relative="1" as="geometry">
            <mxPoint x="-500" y="110" as="sourcePoint" />
            <mxPoint x="-450" y="60" as="targetPoint" />
          </mxGeometry>
        </mxCell>
        <mxCell id="AOK6RlnhA2tjS8RgAGG8-32" value="" style="endArrow=none;html=1;rounded=0;" parent="1" source="AOK6RlnhA2tjS8RgAGG8-24" target="AOK6RlnhA2tjS8RgAGG8-2" edge="1">
          <mxGeometry width="50" height="50" relative="1" as="geometry">
            <mxPoint x="-440" y="270" as="sourcePoint" />
            <mxPoint x="-390" y="220" as="targetPoint" />
          </mxGeometry>
        </mxCell>
        <mxCell id="AOK6RlnhA2tjS8RgAGG8-33" value="" style="endArrow=none;html=1;rounded=0;" parent="1" source="AOK6RlnhA2tjS8RgAGG8-27" target="AOK6RlnhA2tjS8RgAGG8-2" edge="1">
          <mxGeometry width="50" height="50" relative="1" as="geometry">
            <mxPoint x="-445" y="320" as="sourcePoint" />
            <mxPoint x="-395" y="270" as="targetPoint" />
          </mxGeometry>
        </mxCell>
        <mxCell id="AOK6RlnhA2tjS8RgAGG8-34" value="" style="rhombus;whiteSpace=wrap;html=1;" parent="1" vertex="1">
          <mxGeometry x="740" y="-160" width="80" height="80" as="geometry" />
        </mxCell>
        <mxCell id="AOK6RlnhA2tjS8RgAGG8-35" value="&lt;font style=&quot;font-size: 24px;&quot;&gt;&lt;b&gt;Floor&lt;/b&gt;&lt;/font&gt;" style="rounded=0;whiteSpace=wrap;html=1;" parent="1" vertex="1">
          <mxGeometry x="380" y="100" width="150" height="70" as="geometry" />
        </mxCell>
        <mxCell id="AOK6RlnhA2tjS8RgAGG8-36" value="&lt;font style=&quot;font-size: 18px;&quot;&gt;No. of Blocks&lt;/font&gt;" style="ellipse;whiteSpace=wrap;html=1;" parent="1" vertex="1">
          <mxGeometry x="410" y="-30" width="140" height="90" as="geometry" />
        </mxCell>
        <mxCell id="AOK6RlnhA2tjS8RgAGG8-39" value="&lt;font style=&quot;font-size: 18px;&quot;&gt;&lt;u&gt;&lt;b&gt;Floor_Number&lt;/b&gt;&lt;/u&gt;&lt;/font&gt;" style="ellipse;whiteSpace=wrap;html=1;" parent="1" vertex="1">
          <mxGeometry x="220" y="-30" width="140" height="90" as="geometry" />
        </mxCell>
        <mxCell id="AOK6RlnhA2tjS8RgAGG8-40" value="" style="endArrow=none;html=1;rounded=0;" parent="1" source="AOK6RlnhA2tjS8RgAGG8-35" target="AOK6RlnhA2tjS8RgAGG8-36" edge="1">
          <mxGeometry width="50" height="50" relative="1" as="geometry">
            <mxPoint x="360" y="95" as="sourcePoint" />
            <mxPoint x="410" y="45" as="targetPoint" />
          </mxGeometry>
        </mxCell>
        <mxCell id="AOK6RlnhA2tjS8RgAGG8-41" value="" style="endArrow=none;html=1;rounded=0;" parent="1" source="AOK6RlnhA2tjS8RgAGG8-35" target="AOK6RlnhA2tjS8RgAGG8-39" edge="1">
          <mxGeometry width="50" height="50" relative="1" as="geometry">
            <mxPoint x="260" y="140" as="sourcePoint" />
            <mxPoint x="310" y="90" as="targetPoint" />
          </mxGeometry>
        </mxCell>
        <mxCell id="AOK6RlnhA2tjS8RgAGG8-42" value="&lt;font style=&quot;font-size: 14px;&quot;&gt;&lt;b&gt;Manage&lt;/b&gt;&lt;/font&gt;" style="rhombus;whiteSpace=wrap;html=1;" parent="1" vertex="1">
          <mxGeometry x="10" y="130" width="80" height="80" as="geometry" />
        </mxCell>
        <mxCell id="AOK6RlnhA2tjS8RgAGG8-44" value="Text" style="text;strokeColor=none;align=center;fillColor=none;html=1;verticalAlign=middle;whiteSpace=wrap;rounded=0;" parent="1" vertex="1">
          <mxGeometry x="650" y="-95" width="60" height="30" as="geometry" />
        </mxCell>
        <mxCell id="AOK6RlnhA2tjS8RgAGG8-45" value="1" style="text;strokeColor=none;align=center;fillColor=none;html=1;verticalAlign=middle;whiteSpace=wrap;rounded=0;" parent="1" vertex="1">
          <mxGeometry x="-290" y="120" width="60" height="30" as="geometry" />
        </mxCell>
        <mxCell id="AOK6RlnhA2tjS8RgAGG8-46" value="Text" style="text;strokeColor=none;align=center;fillColor=none;html=1;verticalAlign=middle;whiteSpace=wrap;rounded=0;" parent="1" vertex="1">
          <mxGeometry x="650" y="-140" width="60" height="30" as="geometry" />
        </mxCell>
        <mxCell id="AOK6RlnhA2tjS8RgAGG8-47" value="&lt;font style=&quot;font-size: 14px;&quot;&gt;&lt;b&gt;supervise&lt;/b&gt;&lt;/font&gt;" style="rhombus;whiteSpace=wrap;html=1;" parent="1" vertex="1">
          <mxGeometry x="-340" y="300" width="80" height="80" as="geometry" />
        </mxCell>
        <mxCell id="AOK6RlnhA2tjS8RgAGG8-50" value="1" style="text;strokeColor=none;align=center;fillColor=none;html=1;verticalAlign=middle;whiteSpace=wrap;rounded=0;" parent="1" vertex="1">
          <mxGeometry x="320" y="110" width="60" height="30" as="geometry" />
        </mxCell>
        <mxCell id="AOK6RlnhA2tjS8RgAGG8-52" value="" style="endArrow=none;html=1;rounded=0;entryX=0.75;entryY=1;entryDx=0;entryDy=0;exitX=0.5;exitY=0;exitDx=0;exitDy=0;shape=link;" parent="1" source="AOK6RlnhA2tjS8RgAGG8-47" target="AOK6RlnhA2tjS8RgAGG8-2" edge="1">
          <mxGeometry width="50" height="50" relative="1" as="geometry">
            <mxPoint x="-192.5" y="245" as="sourcePoint" />
            <mxPoint x="-219.5" y="175" as="targetPoint" />
          </mxGeometry>
        </mxCell>
        <mxCell id="AOK6RlnhA2tjS8RgAGG8-55" value="&lt;font style=&quot;font-size: 18px;&quot;&gt;Hiring Date&amp;nbsp;&lt;/font&gt;" style="ellipse;whiteSpace=wrap;html=1;" parent="1" vertex="1">
          <mxGeometry x="-20" y="-20" width="140" height="90" as="geometry" />
        </mxCell>
        <mxCell id="AOK6RlnhA2tjS8RgAGG8-56" value="" style="endArrow=none;html=1;rounded=0;exitX=1;exitY=0.5;exitDx=0;exitDy=0;entryX=0;entryY=0.5;entryDx=0;entryDy=0;shape=link;" parent="1" source="AOK6RlnhA2tjS8RgAGG8-35" target="yWRNZ5kheewWcG8K71Du-6" edge="1">
          <mxGeometry width="50" height="50" relative="1" as="geometry">
            <mxPoint x="390" y="370" as="sourcePoint" />
            <mxPoint x="592.5" y="130" as="targetPoint" />
          </mxGeometry>
        </mxCell>
        <mxCell id="AOK6RlnhA2tjS8RgAGG8-57" value="" style="endArrow=none;html=1;rounded=0;entryX=0.5;entryY=1;entryDx=0;entryDy=0;exitX=0.5;exitY=0;exitDx=0;exitDy=0;" parent="1" source="AOK6RlnhA2tjS8RgAGG8-42" target="AOK6RlnhA2tjS8RgAGG8-55" edge="1">
          <mxGeometry width="50" height="50" relative="1" as="geometry">
            <mxPoint x="200" y="125" as="sourcePoint" />
            <mxPoint x="140" y="15" as="targetPoint" />
          </mxGeometry>
        </mxCell>
        <mxCell id="AOK6RlnhA2tjS8RgAGG8-58" value="&lt;span style=&quot;font-size: 14px;&quot;&gt;&lt;b&gt;Work on&lt;/b&gt;&lt;/span&gt;" style="rhombus;whiteSpace=wrap;html=1;" parent="1" vertex="1">
          <mxGeometry x="10" y="230" width="80" height="80" as="geometry" />
        </mxCell>
        <mxCell id="AOK6RlnhA2tjS8RgAGG8-59" value="" style="endArrow=none;html=1;rounded=0;exitX=0;exitY=0.5;exitDx=0;exitDy=0;entryX=1;entryY=0.75;entryDx=0;entryDy=0;shape=link;" parent="1" source="AOK6RlnhA2tjS8RgAGG8-58" target="AOK6RlnhA2tjS8RgAGG8-2" edge="1">
          <mxGeometry width="50" height="50" relative="1" as="geometry">
            <mxPoint x="-90" y="320" as="sourcePoint" />
            <mxPoint x="-150" y="210" as="targetPoint" />
          </mxGeometry>
        </mxCell>
        <mxCell id="AOK6RlnhA2tjS8RgAGG8-60" value="" style="endArrow=none;html=1;rounded=0;exitX=1;exitY=0.5;exitDx=0;exitDy=0;entryX=0;entryY=1;entryDx=0;entryDy=0;shape=link;" parent="1" source="AOK6RlnhA2tjS8RgAGG8-58" target="AOK6RlnhA2tjS8RgAGG8-35" edge="1">
          <mxGeometry width="50" height="50" relative="1" as="geometry">
            <mxPoint x="220" y="360" as="sourcePoint" />
            <mxPoint x="160" y="250" as="targetPoint" />
          </mxGeometry>
        </mxCell>
        <mxCell id="AOK6RlnhA2tjS8RgAGG8-61" value="1" style="text;strokeColor=none;align=center;fillColor=none;html=1;verticalAlign=middle;whiteSpace=wrap;rounded=0;" parent="1" vertex="1">
          <mxGeometry x="320" y="155" width="60" height="30" as="geometry" />
        </mxCell>
        <mxCell id="AOK6RlnhA2tjS8RgAGG8-62" value="M" style="text;strokeColor=none;align=center;fillColor=none;html=1;verticalAlign=middle;whiteSpace=wrap;rounded=0;" parent="1" vertex="1">
          <mxGeometry x="-260" y="155" width="60" height="30" as="geometry" />
        </mxCell>
        <mxCell id="AOK6RlnhA2tjS8RgAGG8-63" value="&lt;font style=&quot;font-size: 24px;&quot;&gt;&lt;b&gt;User&lt;/b&gt;&lt;/font&gt;" style="rounded=0;whiteSpace=wrap;html=1;" parent="1" vertex="1">
          <mxGeometry x="-400" y="440" width="150" height="70" as="geometry" />
        </mxCell>
        <mxCell id="AOK6RlnhA2tjS8RgAGG8-69" value="&lt;font style=&quot;font-size: 18px;&quot;&gt;Email&lt;/font&gt;" style="ellipse;whiteSpace=wrap;html=1;" parent="1" vertex="1">
          <mxGeometry x="-560" y="540" width="120" height="80" as="geometry" />
        </mxCell>
        <mxCell id="AOK6RlnhA2tjS8RgAGG8-71" value="&lt;span style=&quot;font-size: 18px;&quot;&gt;Name&lt;/span&gt;" style="ellipse;whiteSpace=wrap;html=1;" parent="1" vertex="1">
          <mxGeometry x="-580" y="450" width="120" height="80" as="geometry" />
        </mxCell>
        <mxCell id="AOK6RlnhA2tjS8RgAGG8-75" value="&lt;font style=&quot;font-size: 18px;&quot;&gt;&lt;u&gt;&lt;b&gt;SSN&lt;/b&gt;&lt;/u&gt;&lt;/font&gt;" style="ellipse;whiteSpace=wrap;html=1;" parent="1" vertex="1">
          <mxGeometry x="-260" y="340" width="120" height="80" as="geometry" />
        </mxCell>
        <mxCell id="AOK6RlnhA2tjS8RgAGG8-77" value="" style="endArrow=none;html=1;rounded=0;entryX=0;entryY=0.5;entryDx=0;entryDy=0;exitX=1;exitY=0.5;exitDx=0;exitDy=0;" parent="1" source="AOK6RlnhA2tjS8RgAGG8-71" target="AOK6RlnhA2tjS8RgAGG8-63" edge="1">
          <mxGeometry width="50" height="50" relative="1" as="geometry">
            <mxPoint x="-560" y="821" as="sourcePoint" />
            <mxPoint x="-500" y="650" as="targetPoint" />
          </mxGeometry>
        </mxCell>
        <mxCell id="AOK6RlnhA2tjS8RgAGG8-78" value="" style="endArrow=none;html=1;rounded=0;entryX=0;entryY=0.5;entryDx=0;entryDy=0;exitX=1;exitY=1;exitDx=0;exitDy=0;" parent="1" target="AOK6RlnhA2tjS8RgAGG8-75" edge="1">
          <mxGeometry width="50" height="50" relative="1" as="geometry">
            <mxPoint x="-280" y="440" as="sourcePoint" />
            <mxPoint x="-232.42640687119274" y="373.2842712474612" as="targetPoint" />
          </mxGeometry>
        </mxCell>
        <mxCell id="AOK6RlnhA2tjS8RgAGG8-79" value="" style="endArrow=none;html=1;rounded=0;entryX=0;entryY=0.75;entryDx=0;entryDy=0;exitX=1;exitY=0;exitDx=0;exitDy=0;" parent="1" source="AOK6RlnhA2tjS8RgAGG8-69" target="AOK6RlnhA2tjS8RgAGG8-63" edge="1">
          <mxGeometry width="50" height="50" relative="1" as="geometry">
            <mxPoint x="-470" y="530" as="sourcePoint" />
            <mxPoint x="-410" y="515" as="targetPoint" />
          </mxGeometry>
        </mxCell>
        <mxCell id="AOK6RlnhA2tjS8RgAGG8-80" value="" style="endArrow=none;html=1;rounded=0;entryX=0.5;entryY=1;entryDx=0;entryDy=0;exitX=0.5;exitY=0;exitDx=0;exitDy=0;" parent="1" source="AOK6RlnhA2tjS8RgAGG8-76" target="AOK6RlnhA2tjS8RgAGG8-63" edge="1">
          <mxGeometry width="50" height="50" relative="1" as="geometry">
            <mxPoint x="-267.57" y="568.72" as="sourcePoint" />
            <mxPoint x="-199.57" y="531.72" as="targetPoint" />
          </mxGeometry>
        </mxCell>
        <mxCell id="AOK6RlnhA2tjS8RgAGG8-81" value="" style="group" parent="1" vertex="1" connectable="0">
          <mxGeometry x="-425" y="540" width="140" height="100" as="geometry" />
        </mxCell>
        <mxCell id="AOK6RlnhA2tjS8RgAGG8-76" value="" style="ellipse;whiteSpace=wrap;html=1;" parent="AOK6RlnhA2tjS8RgAGG8-81" vertex="1">
          <mxGeometry width="140" height="100" as="geometry" />
        </mxCell>
        <mxCell id="AOK6RlnhA2tjS8RgAGG8-70" value="&lt;font style=&quot;font-size: 18px;&quot;&gt;Phones&lt;/font&gt;" style="ellipse;whiteSpace=wrap;html=1;" parent="AOK6RlnhA2tjS8RgAGG8-81" vertex="1">
          <mxGeometry x="10" y="10" width="120" height="80" as="geometry" />
        </mxCell>
        <mxCell id="AOK6RlnhA2tjS8RgAGG8-82" value="&lt;font style=&quot;font-size: 24px;&quot;&gt;&lt;b&gt;Book&lt;/b&gt;&lt;/font&gt;" style="rounded=0;whiteSpace=wrap;html=1;" parent="1" vertex="1">
          <mxGeometry x="210" y="590" width="150" height="70" as="geometry" />
        </mxCell>
        <mxCell id="AOK6RlnhA2tjS8RgAGG8-83" value="&lt;font style=&quot;font-size: 18px;&quot;&gt;&lt;u&gt;&lt;b&gt;id&lt;/b&gt;&lt;/u&gt;&lt;/font&gt;" style="ellipse;whiteSpace=wrap;html=1;" parent="1" vertex="1">
          <mxGeometry x="470" y="630" width="120" height="80" as="geometry" />
        </mxCell>
        <mxCell id="AOK6RlnhA2tjS8RgAGG8-84" value="&lt;span style=&quot;font-size: 18px;&quot;&gt;title&lt;/span&gt;" style="ellipse;whiteSpace=wrap;html=1;" parent="1" vertex="1">
          <mxGeometry x="470" y="520" width="120" height="80" as="geometry" />
        </mxCell>
        <mxCell id="AOK6RlnhA2tjS8RgAGG8-85" value="" style="endArrow=none;html=1;rounded=0;entryX=0;entryY=0.5;entryDx=0;entryDy=0;exitX=1;exitY=0.75;exitDx=0;exitDy=0;" parent="1" source="AOK6RlnhA2tjS8RgAGG8-82" target="AOK6RlnhA2tjS8RgAGG8-83" edge="1">
          <mxGeometry width="50" height="50" relative="1" as="geometry">
            <mxPoint x="360" y="690" as="sourcePoint" />
            <mxPoint x="428" y="653" as="targetPoint" />
          </mxGeometry>
        </mxCell>
        <mxCell id="AOK6RlnhA2tjS8RgAGG8-86" value="" style="endArrow=none;html=1;rounded=0;entryX=0;entryY=0.5;entryDx=0;entryDy=0;exitX=1;exitY=0.25;exitDx=0;exitDy=0;" parent="1" source="AOK6RlnhA2tjS8RgAGG8-82" target="AOK6RlnhA2tjS8RgAGG8-84" edge="1">
          <mxGeometry width="50" height="50" relative="1" as="geometry">
            <mxPoint x="350" y="573" as="sourcePoint" />
            <mxPoint x="470" y="600" as="targetPoint" />
          </mxGeometry>
        </mxCell>
        <mxCell id="AOK6RlnhA2tjS8RgAGG8-91" value="&lt;span style=&quot;font-size: 18px;&quot;&gt;Date_Borrowed&lt;/span&gt;" style="ellipse;whiteSpace=wrap;html=1;" parent="1" vertex="1">
          <mxGeometry x="-210" y="570" width="140" height="90" as="geometry" />
        </mxCell>
        <mxCell id="AOK6RlnhA2tjS8RgAGG8-94" value="&lt;span style=&quot;font-size: 18px;&quot;&gt;Due_date&lt;/span&gt;" style="ellipse;whiteSpace=wrap;html=1;" parent="1" vertex="1">
          <mxGeometry x="-60" y="580" width="120" height="80" as="geometry" />
        </mxCell>
        <mxCell id="AOK6RlnhA2tjS8RgAGG8-95" value="&lt;span style=&quot;font-size: 18px;&quot;&gt;Amount of Money&lt;/span&gt;" style="ellipse;whiteSpace=wrap;html=1;" parent="1" vertex="1">
          <mxGeometry x="50" y="660" width="120" height="80" as="geometry" />
        </mxCell>
        <mxCell id="AOK6RlnhA2tjS8RgAGG8-97" value="" style="endArrow=none;html=1;rounded=0;exitX=0.5;exitY=0;exitDx=0;exitDy=0;entryX=0;entryY=1;entryDx=0;entryDy=0;" parent="1" source="AOK6RlnhA2tjS8RgAGG8-91" target="Wm-Stg2aWcoPE4MV4svv-1" edge="1">
          <mxGeometry width="50" height="50" relative="1" as="geometry">
            <mxPoint x="-160" y="550" as="sourcePoint" />
            <mxPoint x="-10" y="510" as="targetPoint" />
          </mxGeometry>
        </mxCell>
        <mxCell id="AOK6RlnhA2tjS8RgAGG8-98" value="" style="endArrow=none;html=1;rounded=0;exitX=0.5;exitY=0;exitDx=0;exitDy=0;entryX=0.5;entryY=1;entryDx=0;entryDy=0;" parent="1" source="AOK6RlnhA2tjS8RgAGG8-94" target="Wm-Stg2aWcoPE4MV4svv-1" edge="1">
          <mxGeometry width="50" height="50" relative="1" as="geometry">
            <mxPoint x="-40" y="555" as="sourcePoint" />
            <mxPoint x="10" y="530" as="targetPoint" />
          </mxGeometry>
        </mxCell>
        <mxCell id="AOK6RlnhA2tjS8RgAGG8-99" value="" style="endArrow=none;html=1;rounded=0;exitX=0.5;exitY=0;exitDx=0;exitDy=0;entryX=1;entryY=1;entryDx=0;entryDy=0;" parent="1" source="AOK6RlnhA2tjS8RgAGG8-95" target="Wm-Stg2aWcoPE4MV4svv-1" edge="1">
          <mxGeometry width="50" height="50" relative="1" as="geometry">
            <mxPoint x="90" y="555" as="sourcePoint" />
            <mxPoint x="30" y="510" as="targetPoint" />
          </mxGeometry>
        </mxCell>
        <mxCell id="AOK6RlnhA2tjS8RgAGG8-100" value="&lt;span style=&quot;font-size: 24px;&quot;&gt;&lt;b&gt;Author&lt;/b&gt;&lt;/span&gt;" style="rounded=0;whiteSpace=wrap;html=1;" parent="1" vertex="1">
          <mxGeometry x="730" y="495" width="150" height="70" as="geometry" />
        </mxCell>
        <mxCell id="AOK6RlnhA2tjS8RgAGG8-101" value="&lt;span style=&quot;font-size: 14px;&quot;&gt;&lt;b&gt;Own&lt;/b&gt;&lt;/span&gt;" style="rhombus;whiteSpace=wrap;html=1;" parent="1" vertex="1">
          <mxGeometry x="390" y="470" width="80" height="80" as="geometry" />
        </mxCell>
        <mxCell id="AOK6RlnhA2tjS8RgAGG8-102" value="" style="endArrow=none;html=1;rounded=0;exitX=0.5;exitY=1;exitDx=0;exitDy=0;entryX=0.5;entryY=0;entryDx=0;entryDy=0;" parent="1" source="AOK6RlnhA2tjS8RgAGG8-101" target="AOK6RlnhA2tjS8RgAGG8-82" edge="1">
          <mxGeometry width="50" height="50" relative="1" as="geometry">
            <mxPoint x="15" y="523" as="sourcePoint" />
            <mxPoint x="235" y="520" as="targetPoint" />
          </mxGeometry>
        </mxCell>
        <mxCell id="AOK6RlnhA2tjS8RgAGG8-103" value="" style="endArrow=none;html=1;rounded=0;exitX=0.5;exitY=0;exitDx=0;exitDy=0;entryX=0;entryY=0.5;entryDx=0;entryDy=0;" parent="1" source="AOK6RlnhA2tjS8RgAGG8-101" target="AOK6RlnhA2tjS8RgAGG8-100" edge="1">
          <mxGeometry width="50" height="50" relative="1" as="geometry">
            <mxPoint x="130" y="433" as="sourcePoint" />
            <mxPoint x="350" y="430" as="targetPoint" />
          </mxGeometry>
        </mxCell>
        <mxCell id="AOK6RlnhA2tjS8RgAGG8-104" value="M" style="text;strokeColor=none;align=center;fillColor=none;html=1;verticalAlign=middle;whiteSpace=wrap;rounded=0;" parent="1" vertex="1">
          <mxGeometry x="680" y="495" width="60" height="30" as="geometry" />
        </mxCell>
        <mxCell id="AOK6RlnhA2tjS8RgAGG8-106" value="&lt;span style=&quot;font-size: 24px;&quot;&gt;&lt;b&gt;Publisher&lt;/b&gt;&lt;/span&gt;" style="rounded=0;whiteSpace=wrap;html=1;" parent="1" vertex="1">
          <mxGeometry x="350" y="830" width="150" height="70" as="geometry" />
        </mxCell>
        <mxCell id="AOK6RlnhA2tjS8RgAGG8-107" value="&lt;span style=&quot;font-size: 14px;&quot;&gt;&lt;b&gt;has&lt;/b&gt;&lt;/span&gt;" style="rhombus;whiteSpace=wrap;html=1;" parent="1" vertex="1">
          <mxGeometry x="290" y="720" width="80" height="80" as="geometry" />
        </mxCell>
        <mxCell id="AOK6RlnhA2tjS8RgAGG8-109" value="" style="endArrow=none;html=1;rounded=0;exitX=0.5;exitY=0;exitDx=0;exitDy=0;entryX=0.5;entryY=1;entryDx=0;entryDy=0;shape=link;" parent="1" source="AOK6RlnhA2tjS8RgAGG8-107" target="AOK6RlnhA2tjS8RgAGG8-82" edge="1">
          <mxGeometry width="50" height="50" relative="1" as="geometry">
            <mxPoint x="360" y="620" as="sourcePoint" />
            <mxPoint x="260" y="530" as="targetPoint" />
          </mxGeometry>
        </mxCell>
        <mxCell id="AOK6RlnhA2tjS8RgAGG8-110" value="1" style="text;strokeColor=none;align=center;fillColor=none;html=1;verticalAlign=middle;whiteSpace=wrap;rounded=0;" parent="1" vertex="1">
          <mxGeometry x="390" y="800" width="60" height="30" as="geometry" />
        </mxCell>
        <mxCell id="AOK6RlnhA2tjS8RgAGG8-111" value="M" style="text;strokeColor=none;align=center;fillColor=none;html=1;verticalAlign=middle;whiteSpace=wrap;rounded=0;" parent="1" vertex="1">
          <mxGeometry x="280" y="660" width="60" height="30" as="geometry" />
        </mxCell>
        <mxCell id="AOK6RlnhA2tjS8RgAGG8-112" value="&lt;font style=&quot;font-size: 18px;&quot;&gt;&lt;u&gt;&lt;b&gt;id&lt;/b&gt;&lt;/u&gt;&lt;/font&gt;" style="ellipse;whiteSpace=wrap;html=1;" parent="1" vertex="1">
          <mxGeometry x="840" y="370" width="120" height="80" as="geometry" />
        </mxCell>
        <mxCell id="AOK6RlnhA2tjS8RgAGG8-113" value="&lt;font style=&quot;font-size: 18px;&quot;&gt;&lt;u&gt;&lt;b&gt;id&lt;/b&gt;&lt;/u&gt;&lt;/font&gt;" style="ellipse;whiteSpace=wrap;html=1;" parent="1" vertex="1">
          <mxGeometry x="500" y="740" width="120" height="80" as="geometry" />
        </mxCell>
        <mxCell id="AOK6RlnhA2tjS8RgAGG8-114" value="&lt;span style=&quot;font-size: 18px;&quot;&gt;Name&lt;/span&gt;" style="ellipse;whiteSpace=wrap;html=1;" parent="1" vertex="1">
          <mxGeometry x="910" y="460" width="120" height="80" as="geometry" />
        </mxCell>
        <mxCell id="AOK6RlnhA2tjS8RgAGG8-115" value="&lt;span style=&quot;font-size: 18px;&quot;&gt;Name&lt;/span&gt;" style="ellipse;whiteSpace=wrap;html=1;" parent="1" vertex="1">
          <mxGeometry x="520" y="870" width="120" height="80" as="geometry" />
        </mxCell>
        <mxCell id="AOK6RlnhA2tjS8RgAGG8-116" value="" style="endArrow=none;html=1;rounded=0;exitX=0.5;exitY=0;exitDx=0;exitDy=0;entryX=0;entryY=0.5;entryDx=0;entryDy=0;" parent="1" source="AOK6RlnhA2tjS8RgAGG8-100" target="AOK6RlnhA2tjS8RgAGG8-112" edge="1">
          <mxGeometry width="50" height="50" relative="1" as="geometry">
            <mxPoint x="540" y="320" as="sourcePoint" />
            <mxPoint x="635" y="310" as="targetPoint" />
          </mxGeometry>
        </mxCell>
        <mxCell id="AOK6RlnhA2tjS8RgAGG8-117" value="" style="endArrow=none;html=1;rounded=0;exitX=1;exitY=0.5;exitDx=0;exitDy=0;entryX=0;entryY=0.5;entryDx=0;entryDy=0;" parent="1" source="AOK6RlnhA2tjS8RgAGG8-100" target="AOK6RlnhA2tjS8RgAGG8-114" edge="1">
          <mxGeometry width="50" height="50" relative="1" as="geometry">
            <mxPoint x="710" y="567.5" as="sourcePoint" />
            <mxPoint x="735" y="512.5" as="targetPoint" />
          </mxGeometry>
        </mxCell>
        <mxCell id="AOK6RlnhA2tjS8RgAGG8-118" value="" style="endArrow=none;html=1;rounded=0;exitX=0.75;exitY=0;exitDx=0;exitDy=0;entryX=0;entryY=0.5;entryDx=0;entryDy=0;" parent="1" source="AOK6RlnhA2tjS8RgAGG8-106" target="AOK6RlnhA2tjS8RgAGG8-113" edge="1">
          <mxGeometry width="50" height="50" relative="1" as="geometry">
            <mxPoint x="450" y="820" as="sourcePoint" />
            <mxPoint x="475" y="765" as="targetPoint" />
          </mxGeometry>
        </mxCell>
        <mxCell id="AOK6RlnhA2tjS8RgAGG8-119" value="" style="endArrow=none;html=1;rounded=0;exitX=0;exitY=0.5;exitDx=0;exitDy=0;entryX=1;entryY=0.5;entryDx=0;entryDy=0;" parent="1" source="AOK6RlnhA2tjS8RgAGG8-115" target="AOK6RlnhA2tjS8RgAGG8-106" edge="1">
          <mxGeometry width="50" height="50" relative="1" as="geometry">
            <mxPoint x="520" y="885" as="sourcePoint" />
            <mxPoint x="545" y="830" as="targetPoint" />
          </mxGeometry>
        </mxCell>
        <mxCell id="AOK6RlnhA2tjS8RgAGG8-120" value="&lt;font style=&quot;font-size: 24px;&quot;&gt;&lt;b&gt;Category&lt;/b&gt;&lt;/font&gt;" style="rounded=0;whiteSpace=wrap;html=1;" parent="1" vertex="1">
          <mxGeometry x="190" y="910" width="150" height="70" as="geometry" />
        </mxCell>
        <mxCell id="AOK6RlnhA2tjS8RgAGG8-121" value="&lt;span style=&quot;font-size: 14px;&quot;&gt;&lt;b&gt;Classified&lt;/b&gt;&lt;/span&gt;" style="rhombus;whiteSpace=wrap;html=1;" parent="1" vertex="1">
          <mxGeometry x="220" y="780" width="80" height="80" as="geometry" />
        </mxCell>
        <mxCell id="AOK6RlnhA2tjS8RgAGG8-122" value="" style="endArrow=none;html=1;rounded=0;exitX=0.5;exitY=0;exitDx=0;exitDy=0;entryX=0.25;entryY=1;entryDx=0;entryDy=0;shape=link;" parent="1" source="AOK6RlnhA2tjS8RgAGG8-121" target="AOK6RlnhA2tjS8RgAGG8-82" edge="1">
          <mxGeometry width="50" height="50" relative="1" as="geometry">
            <mxPoint x="272.5" y="750" as="sourcePoint" />
            <mxPoint x="227.5" y="690" as="targetPoint" />
          </mxGeometry>
        </mxCell>
        <mxCell id="AOK6RlnhA2tjS8RgAGG8-124" value="1" style="text;strokeColor=none;align=center;fillColor=none;html=1;verticalAlign=middle;whiteSpace=wrap;rounded=0;" parent="1" vertex="1">
          <mxGeometry x="250" y="880" width="60" height="30" as="geometry" />
        </mxCell>
        <mxCell id="AOK6RlnhA2tjS8RgAGG8-126" value="M" style="text;strokeColor=none;align=center;fillColor=none;html=1;verticalAlign=middle;whiteSpace=wrap;rounded=0;" parent="1" vertex="1">
          <mxGeometry x="230" y="660" width="60" height="30" as="geometry" />
        </mxCell>
        <mxCell id="AOK6RlnhA2tjS8RgAGG8-127" value="&lt;font style=&quot;font-size: 18px;&quot;&gt;&lt;u&gt;&lt;b&gt;id&lt;/b&gt;&lt;/u&gt;&lt;/font&gt;" style="ellipse;whiteSpace=wrap;html=1;" parent="1" vertex="1">
          <mxGeometry x="170" y="1005" width="120" height="80" as="geometry" />
        </mxCell>
        <mxCell id="AOK6RlnhA2tjS8RgAGG8-130" value="&lt;span style=&quot;font-size: 18px;&quot;&gt;Cat_Name&lt;/span&gt;" style="ellipse;whiteSpace=wrap;html=1;" parent="1" vertex="1">
          <mxGeometry x="310" y="1000" width="140" height="90" as="geometry" />
        </mxCell>
        <mxCell id="AOK6RlnhA2tjS8RgAGG8-131" value="" style="endArrow=none;html=1;rounded=0;exitX=0.5;exitY=0;exitDx=0;exitDy=0;entryX=0.25;entryY=1;entryDx=0;entryDy=0;" parent="1" source="AOK6RlnhA2tjS8RgAGG8-127" target="AOK6RlnhA2tjS8RgAGG8-120" edge="1">
          <mxGeometry width="50" height="50" relative="1" as="geometry">
            <mxPoint x="42.5" y="920" as="sourcePoint" />
            <mxPoint x="30.5" y="800" as="targetPoint" />
          </mxGeometry>
        </mxCell>
        <mxCell id="AOK6RlnhA2tjS8RgAGG8-132" value="" style="endArrow=none;html=1;rounded=0;exitX=0.5;exitY=0;exitDx=0;exitDy=0;entryX=0.75;entryY=1;entryDx=0;entryDy=0;" parent="1" source="AOK6RlnhA2tjS8RgAGG8-130" target="AOK6RlnhA2tjS8RgAGG8-120" edge="1">
          <mxGeometry width="50" height="50" relative="1" as="geometry">
            <mxPoint x="192.5" y="1030" as="sourcePoint" />
            <mxPoint x="240.5" y="990" as="targetPoint" />
          </mxGeometry>
        </mxCell>
        <mxCell id="AOK6RlnhA2tjS8RgAGG8-133" value="&lt;span style=&quot;font-size: 24px;&quot;&gt;&lt;b&gt;Shelf&lt;/b&gt;&lt;/span&gt;" style="rounded=0;whiteSpace=wrap;html=1;" parent="1" vertex="1">
          <mxGeometry x="590" y="240" width="150" height="70" as="geometry" />
        </mxCell>
        <mxCell id="AOK6RlnhA2tjS8RgAGG8-135" value="" style="endArrow=none;html=1;rounded=0;exitX=1;exitY=0.5;exitDx=0;exitDy=0;entryX=0;entryY=0.5;entryDx=0;entryDy=0;" parent="1" source="AOK6RlnhA2tjS8RgAGG8-133" target="yWRNZ5kheewWcG8K71Du-1" edge="1">
          <mxGeometry width="50" height="50" relative="1" as="geometry">
            <mxPoint x="309.99640687119273" y="429.9957287525383" as="sourcePoint" />
            <mxPoint x="767.5699999999999" y="298.28" as="targetPoint" />
          </mxGeometry>
        </mxCell>
        <mxCell id="yWRNZ5kheewWcG8K71Du-1" value="&lt;font style=&quot;font-size: 18px;&quot;&gt;&lt;u&gt;&lt;b&gt;Code&lt;/b&gt;&lt;/u&gt;&lt;/font&gt;" style="ellipse;whiteSpace=wrap;html=1;" parent="1" vertex="1">
          <mxGeometry x="760" y="190" width="120" height="80" as="geometry" />
        </mxCell>
        <mxCell id="yWRNZ5kheewWcG8K71Du-2" value="&lt;span style=&quot;font-size: 14px;&quot;&gt;&lt;b&gt;Assigned&lt;/b&gt;&lt;/span&gt;" style="rhombus;whiteSpace=wrap;html=1;" parent="1" vertex="1">
          <mxGeometry x="430" y="290" width="80" height="80" as="geometry" />
        </mxCell>
        <mxCell id="yWRNZ5kheewWcG8K71Du-4" value="M" style="text;strokeColor=none;align=center;fillColor=none;html=1;verticalAlign=middle;whiteSpace=wrap;rounded=0;" parent="1" vertex="1">
          <mxGeometry x="250" y="565" width="60" height="30" as="geometry" />
        </mxCell>
        <mxCell id="yWRNZ5kheewWcG8K71Du-5" value="1" style="text;strokeColor=none;align=center;fillColor=none;html=1;verticalAlign=middle;whiteSpace=wrap;rounded=0;" parent="1" vertex="1">
          <mxGeometry x="540" y="250" width="60" height="30" as="geometry" />
        </mxCell>
        <mxCell id="yWRNZ5kheewWcG8K71Du-6" value="&lt;span style=&quot;font-size: 14px;&quot;&gt;&lt;b&gt;Located&lt;/b&gt;&lt;/span&gt;" style="rhombus;whiteSpace=wrap;html=1;" parent="1" vertex="1">
          <mxGeometry x="610" y="105" width="80" height="80" as="geometry" />
        </mxCell>
        <mxCell id="yWRNZ5kheewWcG8K71Du-7" value="" style="endArrow=none;html=1;rounded=0;exitX=0.5;exitY=1;exitDx=0;exitDy=0;entryX=0.5;entryY=0;entryDx=0;entryDy=0;shape=link;" parent="1" source="yWRNZ5kheewWcG8K71Du-6" target="AOK6RlnhA2tjS8RgAGG8-133" edge="1">
          <mxGeometry width="50" height="50" relative="1" as="geometry">
            <mxPoint x="720" y="130" as="sourcePoint" />
            <mxPoint x="800" y="140" as="targetPoint" />
          </mxGeometry>
        </mxCell>
        <mxCell id="yWRNZ5kheewWcG8K71Du-8" value="1" style="text;strokeColor=none;align=center;fillColor=none;html=1;verticalAlign=middle;whiteSpace=wrap;rounded=0;" parent="1" vertex="1">
          <mxGeometry x="520" y="105" width="60" height="30" as="geometry" />
        </mxCell>
        <mxCell id="yWRNZ5kheewWcG8K71Du-9" value="M" style="text;strokeColor=none;align=center;fillColor=none;html=1;verticalAlign=middle;whiteSpace=wrap;rounded=0;" parent="1" vertex="1">
          <mxGeometry x="610" y="210" width="60" height="30" as="geometry" />
        </mxCell>
        <mxCell id="yWRNZ5kheewWcG8K71Du-10" value="" style="endArrow=none;html=1;rounded=0;exitX=0;exitY=1;exitDx=0;exitDy=0;shape=link;" parent="1" source="yWRNZ5kheewWcG8K71Du-2" edge="1">
          <mxGeometry width="50" height="50" relative="1" as="geometry">
            <mxPoint x="240" y="357.5" as="sourcePoint" />
            <mxPoint x="240" y="590" as="targetPoint" />
          </mxGeometry>
        </mxCell>
        <mxCell id="yWRNZ5kheewWcG8K71Du-11" value="M" style="text;strokeColor=none;align=center;fillColor=none;html=1;verticalAlign=middle;whiteSpace=wrap;rounded=0;" parent="1" vertex="1">
          <mxGeometry x="210" y="560" width="60" height="30" as="geometry" />
        </mxCell>
        <mxCell id="Wm-Stg2aWcoPE4MV4svv-1" value="&lt;span style=&quot;font-size: 14px;&quot;&gt;&lt;b&gt;record&lt;/b&gt;&lt;/span&gt;" style="rhombus;whiteSpace=wrap;html=1;" parent="1" vertex="1">
          <mxGeometry x="-20" y="340" width="80" height="80" as="geometry" />
        </mxCell>
        <mxCell id="Wm-Stg2aWcoPE4MV4svv-4" value="1" style="text;strokeColor=none;align=center;fillColor=none;html=1;verticalAlign=middle;whiteSpace=wrap;rounded=0;" parent="1" vertex="1">
          <mxGeometry x="-385" y="180" width="60" height="30" as="geometry" />
        </mxCell>
        <mxCell id="Wm-Stg2aWcoPE4MV4svv-5" value="M" style="text;strokeColor=none;align=center;fillColor=none;html=1;verticalAlign=middle;whiteSpace=wrap;rounded=0;" parent="1" vertex="1">
          <mxGeometry x="-340" y="180" width="60" height="30" as="geometry" />
        </mxCell>
        <mxCell id="Wm-Stg2aWcoPE4MV4svv-6" value="" style="endArrow=none;html=1;rounded=0;exitX=1;exitY=0.25;exitDx=0;exitDy=0;entryX=0;entryY=0.5;entryDx=0;entryDy=0;" parent="1" source="AOK6RlnhA2tjS8RgAGG8-63" target="Wm-Stg2aWcoPE4MV4svv-1" edge="1">
          <mxGeometry width="50" height="50" relative="1" as="geometry">
            <mxPoint x="-220" y="443" as="sourcePoint" />
            <mxPoint y="440" as="targetPoint" />
          </mxGeometry>
        </mxCell>
        <mxCell id="Wm-Stg2aWcoPE4MV4svv-7" value="" style="endArrow=none;html=1;rounded=0;exitX=1;exitY=1;exitDx=0;exitDy=0;entryX=0.5;entryY=0;entryDx=0;entryDy=0;" parent="1" source="AOK6RlnhA2tjS8RgAGG8-2" target="Wm-Stg2aWcoPE4MV4svv-1" edge="1">
          <mxGeometry width="50" height="50" relative="1" as="geometry">
            <mxPoint x="-290" y="339.25" as="sourcePoint" />
            <mxPoint x="-60" y="261.25" as="targetPoint" />
          </mxGeometry>
        </mxCell>
        <mxCell id="Wm-Stg2aWcoPE4MV4svv-8" value="" style="endArrow=none;html=1;rounded=0;exitX=1;exitY=0.5;exitDx=0;exitDy=0;entryX=0;entryY=1;entryDx=0;entryDy=0;" parent="1" source="Wm-Stg2aWcoPE4MV4svv-1" target="yWRNZ5kheewWcG8K71Du-11" edge="1">
          <mxGeometry width="50" height="50" relative="1" as="geometry">
            <mxPoint x="50" y="470.5" as="sourcePoint" />
            <mxPoint x="280" y="392.5" as="targetPoint" />
          </mxGeometry>
        </mxCell>
        <mxCell id="vVZk_1BRVbxI1648wmKv-1" value="" style="endArrow=none;html=1;rounded=0;entryX=1;entryY=1;entryDx=0;entryDy=0;exitX=1;exitY=0.5;exitDx=0;exitDy=0;shape=link;" edge="1" parent="1" source="AOK6RlnhA2tjS8RgAGG8-42" target="AOK6RlnhA2tjS8RgAGG8-50">
          <mxGeometry width="50" height="50" relative="1" as="geometry">
            <mxPoint x="180" y="170" as="sourcePoint" />
            <mxPoint x="230" y="120" as="targetPoint" />
          </mxGeometry>
        </mxCell>
        <mxCell id="vVZk_1BRVbxI1648wmKv-2" value="" style="endArrow=none;html=1;rounded=0;exitX=0;exitY=0.5;exitDx=0;exitDy=0;entryX=1;entryY=0.5;entryDx=0;entryDy=0;" edge="1" parent="1" source="AOK6RlnhA2tjS8RgAGG8-42" target="AOK6RlnhA2tjS8RgAGG8-2">
          <mxGeometry width="50" height="50" relative="1" as="geometry">
            <mxPoint x="-10" y="198.75" as="sourcePoint" />
            <mxPoint x="-310" y="91.75" as="targetPoint" />
          </mxGeometry>
        </mxCell>
        <mxCell id="vVZk_1BRVbxI1648wmKv-4" value="" style="endArrow=none;html=1;rounded=0;exitX=0.25;exitY=1;exitDx=0;exitDy=0;entryX=1;entryY=1;entryDx=0;entryDy=0;" edge="1" parent="1" source="AOK6RlnhA2tjS8RgAGG8-110" target="AOK6RlnhA2tjS8RgAGG8-107">
          <mxGeometry width="50" height="50" relative="1" as="geometry">
            <mxPoint x="410" y="840" as="sourcePoint" />
            <mxPoint x="365" y="780" as="targetPoint" />
          </mxGeometry>
        </mxCell>
        <mxCell id="vVZk_1BRVbxI1648wmKv-6" value="" style="endArrow=none;html=1;rounded=0;exitX=0.46;exitY=-0.014;exitDx=0;exitDy=0;entryX=0.5;entryY=1;entryDx=0;entryDy=0;exitPerimeter=0;" edge="1" parent="1" source="AOK6RlnhA2tjS8RgAGG8-120" target="AOK6RlnhA2tjS8RgAGG8-121">
          <mxGeometry width="50" height="50" relative="1" as="geometry">
            <mxPoint x="225" y="900" as="sourcePoint" />
            <mxPoint x="170" y="850" as="targetPoint" />
          </mxGeometry>
        </mxCell>
        <mxCell id="vVZk_1BRVbxI1648wmKv-7" value="" style="endArrow=none;html=1;rounded=0;entryX=1;entryY=0.5;entryDx=0;entryDy=0;" edge="1" parent="1" target="yWRNZ5kheewWcG8K71Du-2">
          <mxGeometry width="50" height="50" relative="1" as="geometry">
            <mxPoint x="590" y="280" as="sourcePoint" />
            <mxPoint x="370" y="525" as="targetPoint" />
          </mxGeometry>
        </mxCell>
        <mxCell id="vVZk_1BRVbxI1648wmKv-8" value="M" style="text;strokeColor=none;align=center;fillColor=none;html=1;verticalAlign=middle;whiteSpace=wrap;rounded=0;" vertex="1" parent="1">
          <mxGeometry x="-300" y="195" width="60" height="30" as="geometry" />
        </mxCell>
        <mxCell id="vVZk_1BRVbxI1648wmKv-9" value="M" style="text;strokeColor=none;align=center;fillColor=none;html=1;verticalAlign=middle;whiteSpace=wrap;rounded=0;" vertex="1" parent="1">
          <mxGeometry x="150" y="570" width="60" height="30" as="geometry" />
        </mxCell>
        <mxCell id="vVZk_1BRVbxI1648wmKv-10" value="M" style="text;strokeColor=none;align=center;fillColor=none;html=1;verticalAlign=middle;whiteSpace=wrap;rounded=0;" vertex="1" parent="1">
          <mxGeometry x="-260" y="450" width="60" height="30" as="geometry" />
        </mxCell>
      </root>
    </mxGraphModel>
  </diagram>
</mxfile>
